<?xml version="1.0" encoding="utf-8"?>
<!-- Generator: Adobe Illustrator 23.0.6, SVG Export Plug-In . SVG Version: 6.00 Build 0)  -->
<svg version="1.1" id="Layer_1" xmlns="http://www.w3.org/2000/svg" xmlns:xlink="http://www.w3.org/1999/xlink" x="0px" y="0px"
	 viewBox="0 0 751.8 54" style="enable-background:new 0 0 751.8 54;" xml:space="preserve">
<style type="text/css">
	.st0{fill:#010101;}
	.st1{fill:#ED5338;}
	.st2{fill:#DD0031;}
	.st3{fill:#002856;}
</style>
<g>
	<g>
		<path d="M195.2,11.8l0.1-0.1c1.2,0.1,2.8,0.2,4.9,0.2c2.1,0,3.9-0.1,5.3-0.2l0.1,0.1v1.3l-0.1,0.1c-1.7,0-3,0.2-3.4,0.6
			c-0.5,0.4-0.6,0.8-0.6,11.1v6c0,8.2-4.1,12.3-12.9,12.3c-6.9,0-12.1-2.5-12.1-10.3V25c0-10.2-0.1-10.6-0.6-11.1
			c-0.4-0.4-1.7-0.6-3.4-0.6l-0.1-0.1v-1.3l0.1-0.1c2.2,0.1,4.3,0.2,6.4,0.2c2.1,0,4.2-0.1,6.4-0.2l0.1,0.1v1.3l-0.1,0.1
			c-1.7,0-3,0.2-3.4,0.6c-0.5,0.4-0.6,0.8-0.6,11.1v7.2c0,3.7,1.8,7.8,8.8,7.8c6.5,0,9.2-2.9,9.2-8.8V25c0-10.2-0.1-10.6-0.6-11.1
			c-0.4-0.4-1.7-0.6-3.4-0.6l-0.1-0.1L195.2,11.8L195.2,11.8z"/>
		<path d="M207.8,24.6c0-1.4,0-2.2-0.2-2.6c-0.2-0.3-0.5-0.5-1.3-0.6l-1.2-0.1v-1.2c1.3,0,2.6,0.1,3.9,0.1c0.9,0,1.8-0.1,2.7-0.1
			c1.1,1.4,2.2,3,3.3,4.3l10.1,11.8V24.6c0-1.4,0-2.2-0.2-2.6c-0.2-0.3-0.5-0.5-1.3-0.6l-1.2-0.1v-1.2c1.2,0,2.5,0.1,3.7,0.1
			s2.5-0.1,3.7-0.1v1.2l-1.2,0.1c-0.8,0.1-1.2,0.2-1.3,0.6c-0.2,0.4-0.2,1.3-0.2,2.6v14.7c0,1.1,0.1,2.3,0.1,3.3l-0.2,0.1l-2.7-0.4
			c-1.3-1.5-2.7-3-4-4.5l-10.5-12.7h-0.1v12.7c0,1.4,0,2.2,0.2,2.6c0.2,0.3,0.5,0.5,1.3,0.6l1.2,0.1v1.2c-1.2,0-2.5-0.1-3.7-0.1
			s-2.5,0.1-3.7,0.1v-1.2l1.2-0.1c0.8-0.1,1.2-0.2,1.3-0.6c0.2-0.4,0.2-1.3,0.2-2.6L207.8,24.6L207.8,24.6z"/>
		<path d="M239.9,37.9c0,1.4,0,2.2,0.2,2.6c0.1,0.3,0.5,0.4,1.3,0.5l1.2,0.1v1.3c-1.3,0-3.1-0.1-5-0.1s-3.7,0.1-5.1,0.1v-1.3
			l1.2-0.1c0.8-0.1,1.2-0.2,1.3-0.5c0.2-0.4,0.2-1.3,0.2-2.6V24.6c0-1.4,0-2.2-0.2-2.6c-0.1-0.3-0.5-0.4-1.3-0.5l-1.2-0.1v-1.3
			c1.3,0,3.1,0.1,5.1,0.1c1.9,0,3.7-0.1,5-0.1v1.3l-1.2,0.1c-0.8,0.1-1.2,0.2-1.3,0.5c-0.2,0.4-0.2,1.3-0.2,2.6V37.9z"/>
		<path d="M258.7,37l4.6-11.5c0.6-1.4,1-2.6,1-3.2s-0.6-0.8-1.2-0.9l-1.5-0.1v-1.2c1.6,0,2.8,0.1,3.8,0.1c0.9,0,2.1-0.1,3.7-0.1v1.2
			l-1,0.1c-0.7,0.1-1.1,0.6-1.5,1.5l-6.8,16.2c-0.5,1.1-0.8,2.1-1.2,3.2h-2.5l-7.8-18.6c-0.4-0.9-0.9-2.2-2-2.3l-1.3-0.1v-1.2
			c2.1,0,3.8,0.1,5.1,0.1s2.9-0.1,5.3-0.1v1.2l-1.6,0.1c-0.5,0-0.8,0.3-0.8,0.6c0,0.7,0.4,1.6,0.7,2.3L258.7,37z"/>
		<path d="M278.9,29.9c0.7,0.1,1.5,0.1,2.2,0.1h2.1c1.1,0,1.8-0.1,1.9-0.7l0.2-1.9h1.3c0,1.2-0.1,2.3-0.1,3.5c0,1.2,0.1,2.3,0.1,3.5
			h-1.3l-0.2-1.6c-0.1-0.9-0.7-1.2-1.9-1.2H281c-0.7,0-1.4,0-2.2,0.1v8.7c1.4,0.1,2.8,0.1,4.2,0.1c1.5,0,3.9-0.3,4-0.6l0.7-3.1h1.3
			l-0.4,5.1l-0.2,0.3c-1.3,0.1-3.2,0.1-5,0.1c-1.1,0-2.2,0-3,0c-1.3,0-2.7-0.1-4-0.1c-1.4,0-2.7,0.1-3.9,0.1v-0.7l1-0.6
			c0.5-0.3,0.7-0.8,0.7-1.9V24.6c0-1.4,0-2.2-0.2-2.6c-0.2-0.3-0.5-0.5-1.3-0.6l-1.2-0.1v-1.2c1.1,0,2,0,2.9,0.1c0.8,0,1.6,0,2.2,0
			c3.1,0,5.3-0.1,7.1-0.1c0.6,0,1.2,0,1.7,0c1.1,0,2,0,3,0.1l0.2,0.2l-0.5,4.6H287l-0.3-2.4c-0.1-0.5-2.2-0.6-3.7-0.6
			c-1.4,0-2.8,0-4.2,0.1v7.8H278.9z"/>
		<path d="M294.3,24.6c0-1.4,0-2.2-0.2-2.6c-0.2-0.3-0.5-0.5-1.3-0.6l-1.2-0.1v-1.2c2.1,0,3.8,0.1,5.5,0.1c2.2,0,4.4-0.1,6.6-0.1
			h0.3c3.2,0,6.1,1.1,6.1,4.8c0,2.9-2.1,4.8-4.8,5.7l5.9,8.9c0.2,0.4,0.6,0.7,0.9,1c0.3,0.2,0.7,0.3,1.3,0.5v1.3
			c-1,0-2.1-0.1-3.2-0.1c-1,0-1.9,0.1-2.9,0.1L300,31l0.2-0.6c0.2,0,0.4,0,0.6,0c2.7,0,4.6-1.8,4.6-4.7c0-2.7-1.9-4.1-4.4-4.1
			c-0.7,0-1.6,0-2.1,0.3v15.8c0,1.4,0,2.2,0.2,2.6c0.1,0.3,0.5,0.4,1.3,0.5l1.2,0.1v1.3c-1.3,0-3.1-0.1-5-0.1s-3.7,0.1-5.1,0.1v-1.3
			l1.2-0.1c0.8-0.1,1.2-0.2,1.3-0.5c0.2-0.4,0.2-1.3,0.2-2.6L294.3,24.6L294.3,24.6z"/>
		<path d="M317.7,35.7l0.2,2.9c0.9,1.5,3.4,2.5,5.1,2.5c2.8,0,5.1-1.5,5.1-4.3c0-1.4-0.8-2.5-2.7-3l-4.5-1.4
			c-2.7-0.8-4.7-2.7-4.7-5.5c0-5.2,3.9-7.2,8.6-7.2c2,0,4.2,0.4,6,1.1l0.2,0.4c-0.3,1-0.5,2.9-0.5,4.6h-1.3l-0.2-2.7
			c-1-1.1-2.8-1.8-4.3-1.8c-3,0-4.4,1.8-4.4,3.9c0,1.5,1,2.5,3.4,3.2l3.7,1c3,0.8,4.9,2.7,4.9,5.6c0,5.5-4.6,7.8-9.5,7.8
			c-2.3,0-4.7-0.5-6.8-1.5c0.4-1.9,0.5-3.8,0.5-5.6H317.7z"/>
		<path d="M341.8,37.9c0,1.4,0,2.2,0.2,2.6c0.1,0.3,0.5,0.4,1.3,0.5l1.2,0.1v1.3c-1.3,0-3.1-0.1-5-0.1s-3.7,0.1-5.1,0.1v-1.3
			l1.2-0.1c0.8-0.1,1.2-0.2,1.3-0.5c0.2-0.4,0.2-1.3,0.2-2.6V24.6c0-1.4,0-2.2-0.2-2.6c-0.1-0.3-0.5-0.4-1.3-0.5l-1.2-0.1v-1.3
			c1.3,0,3.1,0.1,5.1,0.1c1.9,0,3.7-0.1,5-0.1v1.3l-1.2,0.1c-0.8,0.1-1.2,0.2-1.3,0.5c-0.2,0.4-0.2,1.3-0.2,2.6V37.9z"/>
		<path d="M359.5,37.9c0,1.4,0,2.2,0.2,2.6c0.1,0.3,0.5,0.4,1.3,0.5l1.2,0.1v1.3c-1.3,0-3.1-0.1-5-0.1s-3.7,0.1-5.1,0.1v-1.3
			l1.2-0.1c0.8-0.1,1.2-0.2,1.3-0.5c0.2-0.4,0.2-1.3,0.2-2.6V22.2H351c-0.9,0-1.8,0-2,0.3c-0.1,0.2-0.3,0.4-0.3,0.8l-0.2,2.2h-1.3
			c-0.1-2.1-0.2-3.6-0.4-5.2l0.2-0.2c3.4,0,6.8,0.1,10.1,0.1c3.3,0,6.7-0.1,10.1-0.1l0.2,0.2c-0.3,1.6-0.4,3.1-0.4,5.2h-1.3
			l-0.2-2.2c0-0.4-0.2-0.6-0.3-0.8c-0.2-0.3-1.1-0.3-2-0.3h-3.8L359.5,37.9L359.5,37.9z"/>
		<path d="M387.9,20.3h2.5v0.6l-5.7,8.5c-0.7,1-1.2,2.1-1.7,3.2v5.3c0,1.4,0,2.2,0.2,2.6c0.1,0.3,0.5,0.4,1.3,0.5l1.2,0.1v1.3
			c-1.3,0-3.1-0.1-5-0.1s-3.7,0.1-5.1,0.1v-1.3l1.2-0.1c0.8-0.1,1.2-0.2,1.3-0.5c0.2-0.4,0.2-1.3,0.2-2.6v-4.5
			c-0.6-1.4-1-2.1-1.4-2.8l-3.3-5.3c-0.5-0.7-1.1-1.6-1.7-2.2c-0.7-0.8-1.4-1.1-2.5-1.1v-1.2l5.2-1.2c1.8,1,2.8,2.7,3.7,4.4l3.5,6.6
			L387.9,20.3z"/>
		<g>
			<path d="M424.3,31c0,7.7-4.9,11.8-12.3,11.8c-7.3,0-11.7-4-11.7-11.4c0-7.7,4.9-11.8,12.3-11.8C419.9,19.6,424.3,23.6,424.3,31z
				 M405.2,30.8c0,5.4,2.2,10.1,6.8,10.1c6,0,7.5-4.5,7.5-9.4c0-5.4-2.2-10.1-6.8-10.1C406.6,21.4,405.2,26,405.2,30.8z"/>
			<path d="M433.6,30c0.7,0.1,1.5,0.1,2.2,0.1h1.7c1.1,0,1.8-0.1,1.9-0.7l0.2-1.7h1.3c0,1-0.1,2.2-0.1,3.3c0,1.2,0.1,2.3,0.1,3.5
				h-1.3l-0.2-1.6c-0.1-0.9-0.7-1.2-1.9-1.2h-1.7c-0.7,0-1.4,0-2.2,0.1v6.1c0,1.4,0,2.2,0.2,2.6c0.1,0.3,0.5,0.4,1.3,0.5l1.5,0.1
				v1.3c-1.7,0-3.4-0.1-5.4-0.1c-1.9,0-3.7,0.1-5.1,0.1V41l1.2-0.1c0.8-0.1,1.2-0.2,1.3-0.5c0.2-0.4,0.2-1.3,0.2-2.6V24.6
				c0-1.4,0-2.2-0.2-2.6c-0.2-0.3-0.5-0.5-1.3-0.6l-1.2-0.1v-1.2c1.1,0,2,0,2.9,0.1c0.8,0,1.6,0,2.2,0c2.5,0,4.7-0.1,6.6-0.1
				c0.6,0,1.2,0,1.7,0c1.1,0,2,0,3,0.1l0.2,0.2l-0.5,4.6H441l-0.3-2.4c-0.1-0.5-2.2-0.6-3.7-0.6c-0.9,0-2.3,0-3.6,0.1V30H433.6z"/>
		</g>
		<g>
			<path d="M455,11.7l0.1-0.1c2.2,0.1,4.3,0.2,6.4,0.2s4.2-0.1,6.4-0.2l0.1,0.1V13l-0.1,0.1c-1.7,0-3,0.2-3.4,0.6
				c-0.5,0.4-0.6,0.8-0.6,11.1v4.5c0,10.2,0.1,10.6,0.6,11.1c0.4,0.4,1.7,0.6,3.4,0.6l0.1,0.1v1.3l-0.1,0.1
				c-2.2-0.1-4.3-0.2-6.4-0.2s-4.2,0.1-6.4,0.2l-0.1-0.1v-1.3l0.1-0.1c1.7,0,3-0.2,3.4-0.6c0.5-0.4,0.6-0.8,0.6-11.1v-4.5
				c0-10.2-0.1-10.6-0.6-11.1c-0.4-0.4-1.7-0.6-3.4-0.6L455,13V11.7z"/>
			<path d="M478,40.2c1.4,0.1,2.8,0.1,4.2,0.1c1.5,0,3.9-0.3,4-0.6l0.7-3.3h1.3l-0.4,5.4l-0.2,0.3c-1.3,0.1-3.2,0.1-5,0.1
				c-1.1,0-2.2,0-3,0c-1.3,0-2.7-0.1-4-0.1c-1.4,0-2.7,0.1-3.9,0.1v-0.7l1-0.6c0.5-0.3,0.6-0.8,0.6-1.9V24.5c0-1.4,0-2.2-0.2-2.6
				c-0.1-0.3-0.5-0.4-1.3-0.5l-1.2-0.1V20c1.3,0,3.1,0.1,5.1,0.1c1.9,0,3.7-0.1,5-0.1v1.3l-1.2,0.1c-0.8,0.1-1.2,0.2-1.3,0.5
				c-0.2,0.4-0.2,1.3-0.2,2.6V40.2z"/>
			<path d="M497.4,40.2c1.4,0.1,2.8,0.1,4.2,0.1c1.5,0,3.9-0.3,4-0.6l0.7-3.3h1.3l-0.4,5.4l-0.2,0.3c-1.3,0.1-3.2,0.1-5,0.1
				c-1.1,0-2.2,0-3,0c-1.3,0-2.7-0.1-4-0.1c-1.4,0-2.7,0.1-3.9,0.1v-0.7l1-0.6c0.5-0.3,0.6-0.8,0.6-1.9V24.5c0-1.4,0-2.2-0.2-2.6
				c-0.1-0.3-0.5-0.4-1.3-0.5l-1.2-0.1V20c1.3,0,3.1,0.1,5.1,0.1c1.9,0,3.7-0.1,5-0.1v1.3l-1.2,0.1c-0.8,0.1-1.2,0.2-1.3,0.5
				c-0.2,0.4-0.2,1.3-0.2,2.6V40.2z"/>
			<path d="M517.4,37.7c0,1.4,0,2.2,0.2,2.6c0.1,0.3,0.5,0.4,1.3,0.5l1.2,0.1v1.3c-1.3,0-3.1-0.1-5-0.1s-3.7,0.1-5.1,0.1v-1.3
				l1.2-0.1c0.8-0.1,1.2-0.2,1.3-0.5c0.2-0.4,0.2-1.3,0.2-2.6V24.5c0-1.4,0-2.2-0.2-2.6c-0.1-0.3-0.5-0.4-1.3-0.5l-1.2-0.1V20
				c1.3,0,3.1,0.1,5.1,0.1c1.9,0,3.7-0.1,5-0.1v1.3l-1.2,0.1c-0.8,0.1-1.2,0.2-1.3,0.5c-0.2,0.4-0.2,1.3-0.2,2.6V37.7z"/>
			<path d="M525.6,24.4c0-1.4,0-2.2-0.2-2.6c-0.2-0.3-0.5-0.5-1.3-0.6l-1.2-0.1V20c1.3,0,2.6,0.1,3.9,0.1c0.9,0,1.8-0.1,2.7-0.1
				c1.1,1.4,2.2,3,3.3,4.3l10.1,11.8V24.4c0-1.4,0-2.2-0.2-2.6c-0.2-0.3-0.5-0.5-1.3-0.6l-1.2-0.1V20c1.2,0,2.5,0.1,3.7,0.1
				s2.5-0.1,3.7-0.1v1.2l-1.2,0.1c-0.8,0.1-1.2,0.2-1.3,0.6c-0.2,0.4-0.2,1.3-0.2,2.6v14.7c0,1.1,0.1,2.3,0.1,3.3l-0.2,0.1l-2.7-0.4
				c-1.3-1.5-2.7-3-4-4.5L527.6,25h-0.1v12.7c0,1.4,0,2.2,0.2,2.6c0.2,0.3,0.5,0.5,1.3,0.6l1.2,0.1v1.2c-1.2,0-2.5-0.1-3.7-0.1
				s-2.5,0.1-3.7,0.1V41l1.2-0.1c0.8-0.1,1.2-0.2,1.3-0.6c0.2-0.4,0.2-1.3,0.2-2.6L525.6,24.4L525.6,24.4z"/>
			<path d="M573.6,30.9c0,7.7-4.9,11.8-12.3,11.8c-7.3,0-11.7-4-11.7-11.4c0-7.7,4.9-11.8,12.3-11.8
				C569.1,19.6,573.6,23.5,573.6,30.9z M554.4,30.8c0,5.4,2.2,10.1,6.8,10.1c6,0,7.5-4.5,7.5-9.4c0-5.4-2.2-10.1-6.8-10.1
				C555.8,21.4,554.4,25.9,554.4,30.8z"/>
			<path d="M583,37.7c0,1.4,0,2.2,0.2,2.6c0.1,0.3,0.5,0.4,1.3,0.5l1.2,0.1v1.3c-1.3,0-3.1-0.1-5-0.1s-3.7,0.1-5.1,0.1v-1.3l1.2-0.1
				c0.8-0.1,1.2-0.2,1.3-0.5c0.2-0.4,0.2-1.3,0.2-2.6V24.5c0-1.4,0-2.2-0.2-2.6c-0.1-0.3-0.5-0.4-1.3-0.5l-1.2-0.1V20
				c1.3,0,3.1,0.1,5.1,0.1c1.9,0,3.7-0.1,5-0.1v1.3l-1.2,0.1c-0.8,0.1-1.2,0.2-1.3,0.5c-0.2,0.4-0.2,1.3-0.2,2.6V37.7z"/>
			<path d="M590.5,35.6l0.2,2.9c0.9,1.5,3.4,2.5,5.1,2.5c2.8,0,5.1-1.5,5.1-4.3c0-1.4-0.8-2.5-2.7-3l-4.5-1.4
				c-2.7-0.8-4.7-2.7-4.7-5.5c0-5.2,3.9-7.2,8.6-7.2c2,0,4.2,0.4,6,1.1l0.2,0.4c-0.3,1-0.5,2.9-0.5,4.6H602l-0.2-2.7
				c-1-1.1-2.8-1.8-4.3-1.8c-3,0-4.4,1.8-4.4,3.9c0,1.5,1,2.5,3.4,3.2l3.7,1c3,0.8,4.9,2.7,4.9,5.6c0,5.5-4.6,7.8-9.5,7.8
				c-2.3,0-4.7-0.5-6.8-1.5c0.4-1.9,0.5-3.8,0.5-5.6H590.5z"/>
			<g>
				<path d="M617.1,34.3L617.1,34.3c0.1,1.7,0.1,2.3,0.2,3.1c0.1,0.7,2.2,3.2,7.1,3.2c5,0,7.9-2.6,7.9-6.7c0-8.9-17.3-1.1-17.3-13.1
					c0-6,4.4-9.8,11.8-9.8c2.5,0,6.2,0.6,8.3,1.8l0.1,0.3c-0.4,1.5-0.8,4.7-0.8,6l-0.1,0.1L633,19l-0.1-0.1c0-2.6,0-3.1-0.3-3.4
					c-0.7-0.8-2.9-2.2-6.2-2.2c-4.8,0-6.9,2.7-6.9,5.8c0,4,2.1,4.7,9.4,5.8c5.1,0.7,8,2.6,8,7.2c0,4.8-3.7,10.9-13.4,10.9
					c-3.3,0-6.5-0.9-8.2-1.9l-0.1-0.3c0.3-2,0.5-4.4,0.5-6.3l0.1-0.1h1.3V34.3z"/>
				<path d="M655.3,20.1h2.5v0.6l-5.7,8.5c-0.7,1-1.2,2.1-1.7,3.2v5.3c0,1.4,0,2.2,0.2,2.6c0.1,0.3,0.5,0.4,1.3,0.5l1.2,0.1v1.3
					c-1.3,0-3.1-0.1-5-0.1s-3.7,0.1-5.1,0.1v-1.3l1.2-0.1c0.8-0.1,1.2-0.2,1.3-0.5c0.2-0.4,0.2-1.3,0.2-2.6v-4.5
					c-0.6-1.4-1-2.1-1.4-2.8l-3.3-5.3c-0.5-0.7-1.1-1.6-1.7-2.2c-0.7-0.8-1.4-1.1-2.5-1.1v-1.2l5.2-1.2c1.8,1,2.8,2.7,3.7,4.4
					l3.5,6.6L655.3,20.1z"/>
				<path d="M661,35.5l0.2,2.9c0.9,1.5,3.4,2.5,5.1,2.5c2.8,0,5.1-1.5,5.1-4.3c0-1.4-0.8-2.5-2.7-3l-4.5-1.4
					c-2.7-0.8-4.7-2.7-4.7-5.5c0-5.2,3.9-7.2,8.6-7.2c2,0,4.2,0.4,6,1.1l0.2,0.4c-0.3,1-0.5,2.9-0.5,4.6h-1.3l-0.2-2.7
					c-1-1.1-2.8-1.8-4.3-1.8c-3,0-4.4,1.8-4.4,3.9c0,1.5,1,2.5,3.4,3.2l3.7,1c3,0.8,4.9,2.7,4.9,5.6c0,5.5-4.6,7.8-9.5,7.8
					c-2.3,0-4.7-0.5-6.8-1.5c0.4-1.9,0.5-3.8,0.5-5.6H661z"/>
				<path d="M690,37.7c0,1.4,0,2.2,0.2,2.6c0.1,0.3,0.5,0.4,1.3,0.5l1.2,0.1v1.3c-1.3,0-3.1-0.1-5-0.1c-2,0-3.7,0.1-5.1,0.1v-1.3
					l1.2-0.1c0.8-0.1,1.2-0.2,1.3-0.5c0.2-0.4,0.2-1.3,0.2-2.6V22h-3.8c-0.9,0-1.8,0-2,0.3c-0.1,0.2-0.3,0.4-0.3,0.8l-0.2,2.2h-1.3
					c-0.1-2.1-0.2-3.6-0.4-5.2l0.2-0.2c3.4,0,6.8,0.1,10.1,0.1s6.7-0.1,10.1-0.1l0.2,0.2c-0.3,1.6-0.4,3.1-0.4,5.2h-1.3l-0.2-2.2
					c0-0.4-0.2-0.6-0.3-0.8c-0.2-0.3-1.1-0.3-2-0.3H690V37.7z"/>
				<path d="M707.7,29.7c0.7,0.1,1.5,0.1,2.2,0.1h2.1c1.1,0,1.8-0.1,1.9-0.7l0.2-1.9h1.3c0,1.2-0.1,2.3-0.1,3.5s0.1,2.3,0.1,3.5
					h-1.3l-0.2-1.6c-0.1-0.9-0.7-1.2-1.9-1.2h-2.1c-0.7,0-1.4,0-2.2,0.1v8.7c1.4,0.1,2.8,0.1,4.2,0.1c1.5,0,3.9-0.3,4-0.6l0.7-3.1
					h1.3l-0.4,5.1l-0.2,0.3c-1.3,0.1-3.2,0.1-5,0.1c-1.1,0-2.2,0-3,0c-1.3,0-2.7-0.1-4-0.1c-1.4,0-2.7,0.1-3.9,0.1v-0.7l1-0.6
					c0.5-0.3,0.7-0.8,0.7-1.9V24.5c0-1.4,0-2.2-0.2-2.6c-0.2-0.3-0.5-0.5-1.3-0.6l-1.2-0.1V20c1.1,0,2,0,2.9,0.1c0.8,0,1.6,0,2.2,0
					c3.1,0,5.3-0.1,7.1-0.1c0.6,0,1.2,0,1.7,0c1.1,0,2,0,3,0.1l0.2,0.2l-0.5,4.6h-1.2l-0.3-2.4c-0.1-0.5-2.2-0.6-3.7-0.6
					c-1.4,0-2.8,0-4.2,0.1v7.7H707.7z"/>
				<path d="M747.9,37.7c0,1.4,0,2.2,0.2,2.6c0.1,0.3,0.5,0.4,1.3,0.5l1.2,0.1v1.3c-1.3,0-3.1-0.1-5-0.1s-3.7,0.1-5.1,0.1v-1.3
					l1.2-0.1c0.8-0.1,1.2-0.2,1.3-0.5c0.2-0.4,0.2-1.3,0.2-2.6V24.3h-0.1l-6.6,13.8c-0.7,1.4-1.4,3-1.9,4.3h-1.1
					c-0.3-0.9-0.7-1.8-1.2-2.7L725,24.3h-0.1v13.4c0,1.4,0,2.2,0.2,2.6c0.2,0.3,0.5,0.5,1.3,0.6l1.2,0.1v1.2c-1.2,0-2.5-0.1-3.7-0.1
					s-2.5,0.1-3.7,0.1V41l1.2-0.1c0.8-0.1,1.2-0.2,1.3-0.6c0.2-0.4,0.2-1.3,0.2-2.6V24.5c0-1.4,0-2.2-0.2-2.6
					c-0.2-0.3-0.5-0.5-1.3-0.6l-1.2-0.1V20c1.3,0,2.6,0.1,3.9,0.1s2.6-0.1,3.9-0.1c0.6,1.3,1.8,3.8,2.4,5.2l5.1,10.7l5.9-12.3
					c0.6-1.2,1.1-2.5,1.6-3.7c1.6,0,2.8,0.1,3.7,0.1c1,0,2.1-0.1,3.8-0.1v1.2l-1.2,0.1c-0.8,0.1-1.2,0.2-1.3,0.6
					c-0.2,0.4-0.2,1.3-0.2,2.6L747.9,37.7L747.9,37.7z"/>
			</g>
		</g>
	</g>
	<rect x="150.3" y="0.1" class="st0" width="1.3" height="53.9"/>
	<g>
		<polygon class="st1" points="1,21.2 5.9,21.2 5.9,35.9 1,35.9 1,44.4 23,44.4 23,35.9 18.1,35.9 18.1,21.2 23,21.2 23,12.6 
			1,12.6 		"/>
	</g>
	<g>
		<g>
			<path class="st2" d="M61.8,11.8c-9.2,0-16.7,7.4-16.7,16.7s7.4,16.7,16.7,16.7s16.7-7.4,16.7-16.7S71.1,11.8,61.8,11.8z M58.6,30
				c0,1.5-0.1,2.2-0.6,3c-0.7,1.2-2.7,1.6-4.3,1.6s-3.6-0.4-4.3-1.6c-0.4-0.7-0.6-1.5-0.6-3v-6.4H52v6.5c0,0.7,0.1,1.2,0.3,1.5
				c0.3,0.3,0.7,0.4,1.3,0.4s1-0.1,1.3-0.4s0.3-0.7,0.3-1.5v-6.5h3.3V30H58.6z M63.8,34.4h-3.3V23.6h3.3V34.4z M75.5,26.4l-2.8,1.3
				c-0.3-1-0.9-1.6-1.9-1.6c-1.3,0-2.1,1.2-2.1,3c0,1.9,0.7,3,2.1,3c0.9,0,1.5-0.4,1.8-1.3l3,1c-0.7,1.8-2.4,3-4.8,3
				c-3.4,0-5.4-2.2-5.4-5.7c0-3.3,2.1-5.7,5.5-5.7C73.4,23.4,75.1,24.9,75.5,26.4z"/>
		</g>
	</g>
	<g>
		<path class="st3" d="M112.6,46.1c-3.9,0-7.9,0-11.8,0c-0.4,0-0.4-0.1-0.4-0.4c0-0.5,0-1,0-1.5c0-0.3,0.1-0.4,0.4-0.4h0.1
			c7.9,0,15.7,0,23.6,0c0.5,0,0.5,0.1,0.5,0.5c0,0.5,0,0.9,0,1.4c0,0.3-0.1,0.4-0.4,0.4C120.5,46.1,116.6,46.1,112.6,46.1z"/>
		<path class="st3" d="M103,36.1c0,1,0,2,0,3c0,0.4,0,0.8,0.1,1.3c0.1,0.6,0.3,1.1,0.6,1.6c0,0,0,0.1,0.1,0.1
			c0.4,0.4,0.9,0.7,1.5,0.9c0.9,0.2,1.9,0.2,2.8,0c0.5-0.1,1-0.4,1.3-0.7c0.4-0.4,0.6-0.8,0.8-1.4c0.1-0.3,0.1-0.6,0.1-0.9
			c0-0.1,0.1-0.3,0.1-0.4c0-1.3,0-2.6,0-4c0-0.4,0-0.7,0.1-1.1c0-0.2,0.1-0.3,0.2-0.4c0,0,0-0.1,0-0.1c0.1-0.1,0.3-0.2,0.4-0.2
			c0.2,0,0.3-0.1,0.5-0.1c0,0,0.1,0,0.1,0c0-0.1,0-0.2,0-0.2h-3.3v0.2c0,0,0,0,0,0c0.2,0,0.4,0.1,0.6,0.1c0.4,0.1,0.6,0.4,0.7,0.8
			c0,0.3,0.1,0.5,0.1,0.8c0,1.3,0,2.7,0,4c0,0.4,0,0.8-0.1,1.1c-0.1,0.8-0.4,1.4-1.1,1.7c-0.1,0.1-0.3,0.2-0.5,0.2
			c-0.7,0.2-1.3,0.2-2,0c-0.1,0-0.1,0-0.2-0.1c-0.2-0.1-0.4-0.2-0.6-0.3c-0.3-0.2-0.5-0.5-0.7-0.9c0-0.1-0.1-0.2-0.1-0.3
			c0-0.1,0-0.2,0-0.3c0-0.3-0.1-0.5-0.1-0.8c0-1.1,0-2.3,0-3.4c0-0.5,0-1,0-1.5c0,0,0-0.1,0-0.1c0-0.1,0-0.2,0-0.3
			c0-0.2,0.1-0.3,0.2-0.4c0,0,0.1,0,0.1-0.1c0.1-0.1,0.2-0.2,0.4-0.2c0.1,0,0.1,0,0.2,0c0.2,0,0.3-0.1,0.5-0.1v-0.2h0v0h-4.1
			c0,0.1,0,0.2,0,0.2l0,0l0,0c0.1,0,0.2,0,0.3,0c0.2,0,0.3,0.1,0.5,0.1c0.4,0.1,0.5,0.4,0.5,1c0,0.1,0,0.1,0,0.2
			C103,35.3,103,35.7,103,36.1z"/>
		<path class="st3" d="M117.1,42.9c0-0.1,0.1-0.2,0.2-0.2c0.1,0,0.2,0,0.3,0c0.2,0.1,0.4,0.1,0.6,0.2c0.2,0.1,0.5,0.1,0.7,0.2
			c0.5,0.1,1.1,0.1,1.7,0c1-0.2,1.7-0.8,2-1.6c0.2-0.5,0.2-1,0.1-1.6l0,0c0,0,0,0,0,0c-0.2-0.6-0.6-1.1-1.1-1.4
			c-0.4-0.3-0.9-0.6-1.3-0.8c-0.3-0.2-0.6-0.4-0.8-0.6c-0.1-0.1-0.2-0.2-0.4-0.3c-0.2-0.2-0.4-0.3-0.6-0.5c-0.2-0.2-0.3-0.4-0.4-0.7
			c-0.1-0.2,0-0.5,0-0.7c0-0.1,0-0.2,0.1-0.2c0,0,0,0,0,0c0.2-0.4,0.9-0.8,1.4-0.7c1,0.1,1.7,0.6,2.2,1.5c0.1,0.3,0.2,0.6,0.4,0.9
			h0.3l0,0h0c0-0.3-0.1-0.7-0.1-1c-0.1-0.7-0.1-1.3-0.2-2l0,0l0,0c0,0-0.1,0-0.1,0c-0.1,0-0.2,0-0.2,0.1c0,0,0,0.1-0.1,0.1
			c-0.1,0.3-0.3,0.3-0.6,0.3c-0.3-0.1-0.6-0.2-0.9-0.3c-0.2-0.1-0.5-0.1-0.7-0.1c0,0-0.1,0-0.1,0c-0.3,0-0.6,0-0.8,0
			c-0.6,0.1-1.1,0.5-1.5,0.9c-0.4,0.5-0.5,1.1-0.5,1.7c0.1,0.7,0.4,1.3,0.9,1.7c0,0,0,0,0.1,0c0.6,0.4,1.2,0.8,1.7,1.1
			c0.4,0.3,0.9,0.6,1.3,0.9c0.1,0.1,0.2,0.2,0.2,0.3c0.1,0.1,0.1,0.2,0.2,0.3c0.1,0.3,0.2,0.6,0.1,0.9c0,0.1,0,0.2-0.1,0.3
			c0,0.1-0.1,0.2-0.1,0.3c-0.2,0.3-0.4,0.5-0.7,0.6c-0.1,0-0.3,0.1-0.4,0.1c-0.2,0-0.4,0-0.6,0c-0.5,0-1.1-0.3-1.5-0.6
			c-0.5-0.4-0.9-1-1.1-1.7l0,0c0-0.1-0.1-0.2-0.2-0.2c-0.1,0-0.1,0-0.2,0l0,0h0c0.1,1,0.3,2,0.4,3C116.9,43.1,117,43.1,117.1,42.9z"
			/>
		<path class="st3" d="M112,43.1L112,43.1L112,43.1l4.3,0v-0.2c-0.1,0-0.2,0-0.3-0.1c-0.2,0-0.3-0.1-0.5-0.1c-0.2,0-0.4-0.2-0.5-0.3
			c0-0.1-0.1-0.2-0.1-0.3c0-0.2-0.1-0.4-0.1-0.7c0-2.2,0-4.3,0-6.5c0-0.2,0-0.4,0-0.6c0.1-0.4,0.2-0.6,0.7-0.7
			c0.2,0,0.3-0.1,0.5-0.1c0.1,0,0.2,0,0.2,0v0l0,0c0-0.1,0-0.2,0-0.2H112v0h0v0.2c0.3,0.1,0.6,0.1,0.8,0.2c0.3,0.1,0.5,0.2,0.5,0.5
			c0,0.1,0,0.1,0,0.2c0,0.2,0.1,0.3,0.1,0.5c0,2.2,0,4.4,0,6.5c0,0.1,0,0.3,0,0.4c0,0.1,0,0.1,0,0.2c0,0.1,0,0.2-0.1,0.3
			c-0.1,0.3-0.3,0.4-0.7,0.4c-0.2,0-0.4,0.1-0.7,0.1l0,0l0,0C112,43,112,43,112,43.1z"/>
		<path class="st3" d="M112.7,32.5c-3.9,0-7.9,0-11.8,0c-0.4,0-0.5,0-0.5-0.5c0-0.4,0-0.9,0-1.4c0-0.4,0.1-0.4,0.5-0.4
			c7.8,0,15.5,0,23.3,0c0.2,0,0.4,0,0.6,0s0.3,0.1,0.3,0.3c0,0.6,0,1.1,0,1.7c0,0.2-0.1,0.3-0.3,0.3c-0.1,0-0.2,0-0.3,0
			C120.5,32.5,116.6,32.5,112.7,32.5z"/>
		<path class="st3" d="M102,29.5c7.1,0,14.2,0,21.3,0c0.3,0,0.4-0.1,0.4-0.3c0-0.4,0-0.8,0-1.2c0-0.3-0.1-0.4-0.4-0.4
			c-0.2,0-0.4,0-0.6,0c-0.2-1-0.3-2-0.6-3c-0.4-2-1.1-3.9-2.2-5.6c-1.1-1.7-2.6-3-4.5-3.6c-0.2-0.1-0.4-0.1-0.5-0.2
			c-0.1-0.1,0-0.4,0-0.6c0-0.2-0.1-0.4-0.3-0.4c-0.2,0-0.2-0.1-0.2-0.2c0-0.8,0-1.5,0-2.3c0-0.1,0-0.1,0-0.2
			c0.5-0.1,0.5-0.1,0.5-0.4c0-0.5,0-0.5-0.5-0.6c0-0.1,0-0.2,0-0.2c-0.1-0.5-0.2-0.9-0.5-1.3c-0.3-0.4-0.8-0.7-1.3-0.6
			c-0.6,0.1-1,0.4-1.3,0.9c-0.2,0.4-0.3,0.8-0.4,1.2c-0.4,0.1-0.4,0.1-0.5,0.4c0,0.5,0,0.5,0.5,0.6v2.7c-0.5,0.1-0.5,0.1-0.5,0.7
			c0,0,0,0.1,0,0.1c0,0.2,0,0.2-0.2,0.3c-0.6,0.2-1.2,0.4-1.8,0.7c-1.5,0.8-2.6,2.1-3.5,3.6c-1.3,2.3-2,4.8-2.3,7.4
			c-0.1,0.6-0.1,0.6-0.7,0.6c-0.3,0-0.4,0.1-0.4,0.4c0,0.4,0,0.8,0,1.2C101.6,29.5,101.7,29.5,102,29.5z M114.7,16.2
			c0.3,0.2,0.6,0.5,0.8,0.7c1.7,1.6,2.7,3.5,3.3,5.7c0.4,1.5,0.7,3,0.8,4.5c0,0.1,0,0.2,0,0.2c0,0.1-0.2,0.1-0.2,0.1
			c-0.1-0.1-0.2-0.2-0.2-0.2c-0.1-0.6-0.1-1.1-0.2-1.7c-0.4-2.2-0.9-4.4-2-6.4c-0.6-1.1-1.4-2.1-2.3-2.9
			C114.7,16.3,114.7,16.3,114.7,16.2C114.6,16.2,114.7,16.2,114.7,16.2z M115.4,24c0.1,1.1,0.2,2.1,0.2,3.2c0,0,0,0,0,0
			c0,0.2,0,0.3-0.2,0.3c-0.2,0-0.2-0.1-0.2-0.3c0-0.4-0.1-0.8-0.1-1.1c-0.1-2-0.3-4-0.7-5.9c-0.3-1.2-0.6-2.4-0.9-3.6
			c0-0.1-0.1-0.2-0.1-0.3c0,0,0,0,0.1,0c0.3,0.7,0.5,1.4,0.8,2.1C114.8,20.1,115.2,22.1,115.4,24z M112.9,13.9c0-0.5,0-0.9,0-1.4
			c0-0.1,0-0.2,0-0.3c0-0.2,0.2-0.4,0.5-0.4c0.2,0,0.4,0.2,0.4,0.4c0,0.7,0,1.3,0,2h-0.9V13.9z M111.4,13.8c0-0.5,0-1,0-1.5
			c0-0.3,0.2-0.5,0.4-0.5c0.2,0,0.4,0.2,0.4,0.5c0,0.7,0,1.3,0,2h-0.9V13.8z M110.9,18.8c0.3-0.8,0.6-1.6,0.9-2.4
			c0-0.1,0.1-0.1,0.1-0.2c0,0,0,0,0,0c-0.1,0.4-0.2,0.8-0.4,1.2c-0.6,2.1-1,4.3-1.2,6.4c-0.1,1.1-0.2,2.3-0.3,3.4
			c0,0.1,0,0.2-0.1,0.3c-0.1,0.1-0.2,0.1-0.3,0c0-0.1,0-0.1,0-0.2C109.8,24.4,110,21.5,110.9,18.8z M105.8,25.9
			c0.2-1.8,0.7-3.6,1.4-5.2c0.7-1.7,1.8-3.2,3.3-4.4c0.1-0.1,0.1-0.1,0.2-0.2c0,0,0,0,0.1,0c-1.1,1-2,2.2-2.7,3.5
			c-0.6,1.2-1,2.5-1.3,3.8c-0.3,1.2-0.5,2.5-0.6,3.7c0,0.1,0,0.1,0,0.2c-0.1,0.1-0.2,0.2-0.2,0.2c-0.1,0-0.2-0.1-0.2-0.2
			C105.7,26.8,105.7,26.4,105.8,25.9z"/>
	</g>
</g>
</svg>
